PathFileType	4	(X/Y/Z)	c:/Users/goper/Files/vsCode/490R/osim_files/A03/A03_Static01.trc
DataRate	CameraRate	NumFrames	NumMarkers	Units                	OrigDataRate	OrigDataStartFrame	OrigNumFrames
250.00	250.00	4	36	mm	250.0	1465	1674
                Frame#	Time	LPSIS			LASIS			LTH1			LTH2			LTH3			LTH4			LLFE			LMFE			LSH1			LSH2			LSH3			LSH4			LLMAL			LMMAL			LCAL			LMTP5			LTOE			LMTP1			RPSIS			RASIS			RTH1			RTH2			RTH3			RTH4			RLFE			RMFE			RSH1			RSH2			RSH3			RSH4			RLMAL			RMMAL			RCAL			RMTP1			RTOE			RMTP5		
		X1	Y1	Z1	X2	Y2	Z2	X3	Y3	Z3	X4	Y4	Z4	X5	Y5	Z5	X6	Y6	Z6	X7	Y7	Z7	X8	Y8	Z8	X9	Y9	Z9	X10	Y10	Z10	X11	Y11	Z11	X12	Y12	Z12	X13	Y13	Z13	X14	Y14	Z14	X15	Y15	Z15	X16	Y16	Z16	X17	Y17	Z17	X18	Y18	Z18	X19	Y19	Z19	X20	Y20	Z20	X21	Y21	Z21	X22	Y22	Z22	X23	Y23	Z23	X24	Y24	Z24	X25	Y25	Z25	X26	Y26	Z26	X27	Y27	Z27	X28	Y28	Z28	X29	Y29	Z29	X30	Y30	Z30	X31	Y31	Z31	X32	Y32	Z32	X33	Y33	Z33	X34	Y34	Z34	X35	Y35	Z35	X36	Y36	Z36

1465	5.85600	-353.13153	1068.59106	426.50348	-113.58543	989.87762	313.36597	-179.95491	659.85950	242.57568	-172.09911	617.07629	241.97069	-118.34248	663.99811	254.49626	-120.27678	620.11505	253.43178	-169.24873	561.25342	246.92831	-139.61937	530.38971	398.51425	-226.26860	478.90332	241.53336	-231.51700	430.81308	237.63571	-165.26393	463.99011	240.15216	-181.18866	418.78305	240.42409	-282.84979	105.55222	230.12201	-262.91418	105.03282	322.56067	-350.27332	86.42879	288.93958	-139.03540	41.96636	197.79219	-101.13230	68.61916	263.90839	-126.62313	48.10842	311.43759	-352.88675	1070.96704	495.33032	-119.65778	988.59717	620.98956	-223.20212	661.36267	692.67865	-221.51385	616.66333	689.57721	-162.81618	657.04401	699.59619	-167.97029	613.17444	695.50488	-197.97945	549.09277	684.08337	-138.16951	540.54791	572.16089	-255.72948	487.74942	680.66644	-264.83145	449.63651	696.86646	-197.75890	475.15793	698.59802	-215.25003	434.25119	712.15533	-281.37933	130.22662	701.30939	-230.66557	118.42016	622.95441	-332.77502	87.65291	647.31470	-120.22623	49.47900	629.84985	-95.27247	71.09534	680.61121	-133.27139	40.95916	747.89307
1466	5.86000	-353.22473	1068.59692	426.52322	-113.65911	989.88123	313.35147	-179.98366	659.86530	242.56078	-172.16634	617.09167	241.95775	-118.39294	664.01672	254.47993	-120.32003	620.11816	253.41707	-169.29945	561.27301	246.92180	-139.64937	530.40558	398.48798	-226.30811	478.90900	241.52025	-231.45367	430.73709	237.56653	-165.29308	463.94296	240.21413	-181.23083	418.80179	240.40977	-282.87152	105.53722	230.11642	-262.92026	105.03416	322.54333	-350.30133	86.43182	288.93195	-139.03622	41.99271	197.77409	-101.15607	68.60944	263.88855	-126.59401	48.10884	311.42368	-352.90323	1070.96887	495.35989	-119.70184	988.58228	620.99139	-223.21687	661.36176	692.67139	-221.51259	616.65240	689.55707	-162.85300	657.03772	699.56781	-167.99380	613.17523	695.49249	-197.97896	549.09766	684.07703	-138.21097	540.52887	572.15881	-255.73270	487.75388	680.66833	-264.83099	449.62207	696.86462	-197.78513	475.15988	698.58679	-215.26904	434.25500	712.12903	-281.38400	130.23787	701.32312	-230.67693	118.42162	622.96478	-332.79288	87.64355	647.32263	-120.24123	49.46953	629.85461	-95.27428	71.09755	680.60016	-133.28783	40.95927	747.86993
1467	5.86400	-353.25739	1068.60925	426.54282	-113.72813	989.91858	313.33640	-180.04327	659.87354	242.54070	-172.21733	617.09296	241.94217	-118.42368	664.03247	254.45990	-120.35689	620.13696	253.39670	-169.34767	561.25641	246.90863	-139.69330	530.41876	398.48856	-226.33369	478.91934	241.51007	-231.58232	430.80469	237.61621	-165.34662	464.03708	240.12502	-181.26794	418.80466	240.40880	-282.84811	105.54253	230.12868	-262.94293	105.05409	322.54443	-350.30170	86.44306	288.93286	-139.04762	41.99188	197.77904	-101.15706	68.57438	263.89529	-126.60443	48.10611	311.43427	-352.94376	1070.95435	495.40613	-119.71468	988.54553	620.97150	-223.23747	661.37415	692.65717	-221.55594	616.67340	689.54187	-162.86333	657.04755	699.56097	-168.04172	613.16833	695.46985	-197.98331	549.09094	684.04596	-138.20374	540.56775	572.10706	-255.77426	487.76221	680.65112	-264.91116	449.63754	696.83136	-197.83246	475.18112	698.57416	-215.25728	434.29822	712.12738	-281.41144	130.25885	701.33337	-230.69090	118.40739	622.95984	-332.74872	87.60014	647.37048	-120.23177	49.48586	629.86896	-95.27154	71.09130	680.62494	-133.29381	40.94977	747.87042
1468	5.86800	-353.27716	1068.58691	426.58481	-113.80059	989.92145	313.31155	-180.10646	659.87274	242.52251	-172.27478	617.10046	241.92163	-118.48556	664.04034	254.41826	-120.38429	620.17682	253.36713	-169.37334	561.26630	246.87138	-139.72023	530.45599	398.46613	-226.37448	478.90027	241.49654	-231.60997	430.82208	237.60013	-165.37708	464.03473	240.10930	-181.30086	418.82419	240.38943	-282.83728	105.53920	230.11452	-262.95914	105.05936	322.55222	-350.32022	86.45609	288.92737	-139.02451	41.99594	197.78833	-100.93932	68.77376	263.79855	-126.74679	48.11097	311.46347	-352.96893	1070.95056	495.41940	-119.71401	988.52582	620.95172	-223.24776	661.37195	692.65656	-221.59113	616.66687	689.53790	-162.90071	657.04987	699.54645	-168.06671	613.19440	695.45251	-198.02962	549.07886	684.03711	-138.26479	540.55273	572.09375	-255.80890	487.76700	680.61182	-264.89893	449.64825	696.82880	-197.86424	475.17654	698.56671	-215.33095	434.26819	712.12067	-281.43921	130.25069	701.32947	-230.68242	118.41416	622.92438	-332.77203	87.60782	647.32532	-120.28379	49.49208	629.90497	-95.25838	71.08441	680.61670	-133.29726	40.98278	747.85510
